<svg 
          width="55.000022888183594" 
          height="49.999996185302734" fill="none" 
          xmlns="http://www.w3.org/2000/svg">
          <path d="M 0 49.999996185302734 L 10.000004161487926 49.999996185302734 L 10.000004161487926 19.999998474121092 L 0 19.999998474121092 L 0 49.999996185302734 Z M 55.000022888183594 22.49999828338623 C 55.000022888183594 19.74999843358994 52.750022011453474 17.499998664855955 50.000020807439626 17.499998664855955 L 34.22501319365024 17.499998664855955 L 36.60001608935305 6.074999703407275 L 36.67501545299191 5.274999335289021 C 36.67501545299191 4.249999422431011 36.250013967806176 3.2999996558427878 35.57501366008364 2.624999680519113 L 32.92501389243394 0 L 16.475007237521243 16.474999124526946 C 15.550006840662677 17.374999091625178 15.000006242231889 18.624998549222948 15.000006242231889 19.999998474121092 L 15.000006242231889 44.99999656677246 C 15.000006242231889 47.74999641656875 17.250007118962003 49.999996185302734 20.00000832297585 49.999996185302734 L 42.50001768632369 49.999996185302734 C 44.57501850810916 49.999996185302734 46.350019640164085 48.74999806880937 47.10001998207802 46.949998134612905 L 54.65002426841106 29.32499661827096 C 54.87502437098524 28.749996651709164 55.000022888183594 28.14999782848358 55.000022888183594 27.4999979019165 L 55.000022888183594 22.49999828338623 Z" fill="rgb(0,0,0)"/>
        </svg>