<svg 
          width="15.563336372375488" 
          height="16.000001907348633" fill="none" 
          xmlns="http://www.w3.org/2000/svg">
          <path d="M 13.731669444551727 8.783333204852116 C 13.765002782586846 8.533333175049794 13.78167059713136 8.27500098645687 13.78167059713136 8.000000953674316 C 13.78167059713136 7.733334271775353 13.765002593217892 7.466667142841518 13.723335919121789 7.216667113039196 L 15.415003434420468 5.900000007947231 C 15.565003464891731 5.783333331512026 15.606670831271062 5.5583336027131836 15.51500415012228 5.391666920317514 L 13.915003825095473 2.625000288089115 C 13.815003810990117 2.4416669411791685 13.606670313228825 2.3833333794441303 13.423336950931262 2.441666717661733 L 11.431668083255875 3.2416668130291644 C 11.01500134850366 2.9250001251697366 10.573335477907445 2.6583333811825964 10.08166875275487 2.458333369758374 L 9.781668195106889 0.341666566663307 C 9.74833485707177 0.14166655523908442 9.581668539425266 0 9.381668511214551 0 L 6.181667861160938 0 C 5.981667832950223 0 5.82333424600493 0.14166655523908442 5.790000907969811 0.341666566663307 L 5.490001145050558 2.458333369758374 C 4.998334419897983 2.6583333811825964 4.548334427825284 2.933333451218057 4.140001019820826 3.2416668130291644 L 2.148333741602893 2.441666717661733 C 1.9650003793053288 2.375000047186992 1.7566672789084026 2.4416669411791685 1.6566672648030454 2.625000288089115 L 0.0650002975680866 5.391666920317514 C -0.03499971653727063 5.566666928761504 -0.001666471634424238 5.783333331512026 0.16500022474998935 5.900000007947231 L 1.8566671067492144 7.216667113039196 C 1.815000432653111 7.466667142841518 1.7816673647015828 7.741667597823674 1.7816673647015828 8.000000953674316 C 1.7816673647015828 8.25833430952496 1.798333779157597 8.533333175049794 1.8400004532537004 8.783333204852116 L 0.14833357125447524 10.100001502037072 C -0.0016664592167878745 10.216668178472277 -0.0433330370762095 10.44166711254246 0.04833364407257251 10.60833379493813 L 1.6483337393731066 13.37500201662385 C 1.7483337534784638 13.558335363533795 1.9566672512397534 13.616668130540173 2.1400006135373175 13.55833479232257 L 4.1316674943908875 12.758333902226479 C 4.548334229143103 13.075000590085907 4.990000894468044 13.341667731437377 5.481667619620619 13.5416677428616 L 5.7816681772686 15.658335340685326 C 5.823334851364703 15.858335352109549 5.981667832950223 16.000001907348633 6.181667861160938 16.000001907348633 L 9.381668511214551 16.000001907348633 C 9.581668539425266 16.000001907348633 9.748335460879339 15.858335352109549 9.773335464405678 15.658335340685326 L 10.07333522732493 13.5416677428616 C 10.565001952477505 13.341667731437377 11.01500273927893 13.075000590085907 11.42333614728339 12.758333902226479 L 13.415003425501324 13.55833479232257 C 13.598336787798887 13.62500146279731 13.806670285560177 13.558335363533795 13.906670299665533 13.37500201662385 L 15.50667062469234 10.60833379493813 C 15.606670638797697 10.425000448028184 15.56500326620955 10.216668178472277 15.40666990899053 10.100001502037072 L 13.731669444551727 8.783333204852116 Z M 7.781668186187744 11.000001509984351 C 6.131667900674395 11.000001509984351 4.7816673780803 9.650001100699104 4.7816673780803 8.000000953674316 C 4.7816673780803 6.35000080664953 6.131667900674395 4.999999999999953 7.781668186187744 4.999999999999953 C 9.431668471701093 4.999999999999953 10.781668994295188 6.35000080664953 10.781668994295188 8.000000953674316 C 10.781668994295188 9.650001100699104 9.431668471701093 11.000001509984351 7.781668186187744 11.000001509984351 Z" fill="rgb(0,0,0)"/>
        </svg>