<?xml version="1.0" standalone="no"?>
<!DOCTYPE svg PUBLIC "-//W3C//DTD SVG 20010904//EN"
 "http://www.w3.org/TR/2001/REC-SVG-20010904/DTD/svg10.dtd">
<svg version="1.0" xmlns="http://www.w3.org/2000/svg"
 width="512.000000pt" height="512.000000pt" viewBox="0 0 512.000000 512.000000"
 preserveAspectRatio="xMidYMid meet">

<g transform="translate(0.000000,512.000000) scale(0.100000,-0.100000)"
fill="#000000" stroke="none">
<path d="M1483 5105 c-76 -21 -149 -60 -203 -111 l-47 -44 -80 0 c-46 0 -99
-7 -125 -16 -61 -20 -121 -73 -149 -131 -42 -86 -35 -123 100 -559 66 -215
121 -394 121 -398 0 -3 -81 -6 -179 -6 -175 0 -181 -1 -207 -24 -21 -18 -28
-32 -28 -60 0 -54 31 -80 104 -86 l59 -5 -86 -70 c-427 -349 -703 -882 -755
-1457 -31 -333 67 -702 260 -991 239 -357 588 -593 1019 -689 85 -19 128 -22
328 -22 201 0 243 2 331 22 171 37 359 109 505 193 l57 33 48 -41 c200 -166
522 -292 759 -295 54 -1 70 3 105 26 26 17 49 43 61 69 18 40 19 74 19 610 l0
567 568 0 c535 0 569 1 609 19 26 12 52 35 69 60 23 36 27 51 26 111 -2 90
-34 245 -73 357 -139 394 -468 715 -859 838 -137 43 -217 57 -361 62 -156 6
-286 -7 -416 -42 -78 -21 -89 -22 -98 -8 -5 8 -41 63 -78 121 -117 181 -260
341 -422 470 l-76 62 50 0 c61 0 95 14 110 47 18 39 13 63 -18 94 l-29 29
-182 0 c-168 0 -181 1 -176 18 3 9 58 186 122 392 100 321 117 385 118 445 1
78 -15 117 -68 173 -54 58 -99 75 -211 80 l-100 4 -50 47 c-56 53 -134 93
-213 110 -71 15 -195 13 -259 -4z m244 -170 c53 -16 110 -50 126 -76 8 -12 -9
-63 -66 -208 -93 -230 -96 -256 -35 -287 34 -18 78 -11 101 14 9 9 49 103 90
207 l74 190 72 3 c68 3 73 1 101 -27 17 -16 30 -38 30 -48 0 -15 -92 -322
-226 -750 l-35 -113 -338 0 -338 0 -131 426 c-127 412 -131 428 -117 460 18
43 50 56 129 52 l60 -3 79 -198 c73 -182 83 -200 112 -214 46 -22 85 -7 108
40 l18 37 -81 205 c-90 225 -89 216 -23 256 78 49 195 62 290 34z m383 -1301
c156 -74 325 -206 458 -356 64 -72 242 -323 242 -341 0 -3 -33 -25 -72 -48
-343 -199 -578 -522 -663 -912 -24 -110 -30 -361 -11 -477 39 -238 128 -446
268 -627 26 -35 48 -64 48 -66 0 -9 -211 -107 -283 -131 -168 -58 -254 -70
-482 -70 -193 0 -219 2 -323 26 -559 133 -972 557 -1094 1121 -33 155 -31 396
5 568 120 573 473 1082 900 1298 l101 51 416 0 416 0 74 -36z m1500 -749 c418
-68 770 -355 918 -749 37 -97 72 -247 72 -308 l0 -38 -571 0 c-636 0 -613 2
-667 -68 l-27 -35 -3 -584 -2 -583 -36 0 c-49 0 -175 27 -264 56 -169 57 -311
145 -453 283 -227 220 -357 527 -357 845 0 739 659 1299 1390 1181z"/>
<path d="M1591 2979 c-39 -15 -50 -40 -51 -106 l0 -62 -64 -30 c-217 -104
-261 -401 -82 -559 57 -50 113 -74 208 -88 48 -7 96 -18 107 -24 39 -20 74
-79 79 -130 6 -62 -10 -100 -58 -144 -102 -92 -257 -28 -279 115 -15 94 -84
127 -143 68 -29 -29 -30 -33 -24 -90 12 -120 88 -223 202 -276 l54 -24 0 -64
c0 -75 18 -103 71 -111 28 -5 41 -1 64 19 26 22 30 32 33 95 l4 69 40 13 c62
18 160 120 188 195 30 83 25 189 -14 268 -49 102 -175 187 -274 187 -160 0
-252 148 -169 271 90 134 307 68 307 -92 0 -20 10 -40 29 -60 38 -38 82 -39
118 -3 24 24 25 31 20 90 -9 120 -93 236 -202 280 l-45 19 0 53 c0 63 -19 104
-55 120 -30 14 -32 14 -64 1z"/>
<path d="M3123 2635 c-17 -7 -35 -26 -43 -44 -35 -87 82 -157 140 -83 11 13
20 37 20 52 0 35 -32 76 -64 82 -13 3 -37 -1 -53 -7z"/>
<path d="M3307 2402 c-259 -260 -261 -263 -211 -321 20 -24 34 -31 62 -31 34
0 51 15 269 232 155 155 234 241 238 259 7 31 -16 83 -40 93 -9 3 -31 6 -49 6
-28 0 -58 -26 -269 -238z"/>
<path d="M3531 2194 c-24 -20 -31 -34 -31 -60 0 -89 116 -116 158 -37 19 35
14 63 -17 94 -36 36 -70 37 -110 3z"/>
<path d="M3760 1427 c-30 -16 -51 -37 -67 -67 l-23 -43 0 -589 c0 -649 -2
-628 63 -685 47 -41 89 -48 199 -33 616 84 1093 562 1179 1181 14 107 7 149
-34 196 -57 65 -36 63 -685 63 l-589 0 -43 -23z m1184 -204 c-16 -142 -86
-345 -161 -468 -188 -308 -491 -514 -838 -570 -49 -8 -93 -15 -97 -15 -5 0 -8
250 -8 555 l0 555 555 0 555 0 -6 -57z"/>
</g>
</svg>
