<svg 
          width="40.720001220703125" 
          height="72" fill="none" 
          xmlns="http://www.w3.org/2000/svg">
          <path d="M 21.920000076293945 31.599998474121094 C 12.84000015258789 29.23999857902527 9.920000076293945 26.799999952316284 9.920000076293945 23 C 9.920000076293945 18.639999866485596 13.959999084472656 15.600000381469727 20.719999313354492 15.600000381469727 C 27.839999198913574 15.600000381469727 30.47999931871891 19 30.719999313354492 24 L 39.55999755859375 24 C 39.27999755740166 17.119999885559082 35.07999897003174 10.800000190734863 26.719999313354492 8.760000228881836 L 26.719999313354492 0 L 14.719999313354492 0 L 14.719999313354492 8.639999389648438 C 6.959999084472656 10.31999933719635 0.7199993133544922 15.360002040863037 0.7199993133544922 23.080001831054688 C 0.7199993133544922 32.32000160217285 8.35999870300293 36.91999840736389 19.51999855041504 39.599998474121094 C 29.51999855041504 41.999998569488525 31.51999855041504 45.52000164985657 31.51999855041504 49.2400016784668 C 31.51999855041504 52.000001668930054 29.559999465942383 56.400001525878906 20.719999313354492 56.400001525878906 C 12.479999542236328 56.400001525878906 9.240001142024994 52.71999979019165 8.80000114440918 48 L 0 48 C 0.47999998927116394 56.760000228881836 7.039999485015869 61.67999970912933 14.719999313354492 63.31999969482422 L 14.719999313354492 72 L 26.719999313354492 72 L 26.719999313354492 63.400001525878906 C 34.519999504089355 61.92000150680542 40.720001220703125 57.40000057220459 40.720001220703125 49.20000076293945 C 40.720001220703125 37.84000110626221 31 33.95999836921692 21.920000076293945 31.599998474121094 Z" fill="rgb(0,0,0)"/>
        </svg>