<?xml version="1.0" encoding="UTF-8" standalone="no"?>
<!-- Created with Inkscape (http://www.inkscape.org/) -->
<svg xmlns="http://www.w3.org/2000/svg" width="256" height="232" version="1.0">
	<g id="layer1" transform="translate(-112.3674,-128.3649)"><path style="fill:black;fill-opacity:1;stroke:none" d="M 317.1674,257.53698 C 308.53463,257.53708 301.73774,261.20839 296.77671,268.55094 C 291.91449,275.89365 289.48349,286.1138 289.48368,299.2114 C 289.48349,312.11067 291.91449,322.2812 296.77671,329.72303 C 301.73774,337.06568 308.53463,340.737 317.1674,340.73698 C 325.60128,340.737 332.24934,337.06568 337.11159,329.72303 C 342.07258,322.2812 344.5532,312.11067 344.55345,299.2114 C 344.5532,286.21302 342.07258,276.04249 337.11159,268.69977 C 332.24934,261.25801 325.60128,257.53708 317.1674,257.53698 M 317.1674,238.63466 C 332.84469,238.63477 345.29739,244.09213 354.52554,255.00675 C 363.75318,265.92157 368.36713,280.65644 368.3674,299.2114 C 368.36713,317.76648 363.70357,332.50135 354.37671,343.41605 C 345.14855,354.23156 332.74546,359.6393 317.1674,359.63931 C 301.29123,359.6393 288.7393,354.23156 279.51159,343.41605 C 270.28351,332.50135 265.66956,317.76648 265.66973,299.2114 C 265.66956,280.55721 270.28351,265.82234 279.51159,255.00675 C 288.83853,244.09213 301.39045,238.63477 317.1674,238.63466 M 163.5674,147.9928 C 155.03401,147.993 148.28673,151.71393 143.32554,159.15559 C 138.46349,166.49841 136.03248,176.61933 136.03252,189.51838 C 136.03248,202.61621 138.46349,212.83635 143.32554,220.17884 C 148.18751,227.52161 154.93479,231.19292 163.5674,231.1928 C 172.19989,231.19292 178.94717,227.52161 183.80926,220.17884 C 188.77041,212.83635 191.25103,202.61621 191.25113,189.51838 C 191.25103,176.71856 188.77041,166.59764 183.80926,159.15559 C 178.84794,151.71393 172.10066,147.993 163.5674,147.9928 M 297.9674,129.09047 L 321.78136,129.09047 L 182.7674,359.63931 L 158.95345,359.63931 L 297.9674,129.09047 M 163.5674,129.09047 C 179.24484,129.0907 191.74715,134.54806 201.07438,145.46256 C 210.4014,156.27827 215.06496,170.96352 215.06508,189.51838 C 215.06496,208.27201 210.4014,223.05649 201.07438,233.87187 C 191.84638,244.68748 179.34406,250.09523 163.5674,250.09512 C 147.79061,250.09523 135.28829,244.68748 126.06043,233.87187 C 116.93172,222.95727 112.36739,208.17279 112.3674,189.51838 C 112.36739,171.06275 116.98134,156.37749 126.20926,145.46256 C 135.43713,134.54806 147.88983,129.0907 163.5674,129.09047" id="text1869" /></g>
</svg>
