<?xml version="1.0" standalone="no"?>
<!DOCTYPE svg PUBLIC "-//W3C//DTD SVG 20010904//EN"
 "http://www.w3.org/TR/2001/REC-SVG-20010904/DTD/svg10.dtd">
<svg version="1.0" xmlns="http://www.w3.org/2000/svg"
 width="512.000000pt" height="512.000000pt" viewBox="0 0 512.000000 512.000000"
 preserveAspectRatio="xMidYMid meet">

<g transform="translate(0.000000,512.000000) scale(0.100000,-0.100000)"
fill="#000000" stroke="none">
<path d="M830 5104 c-42 -18 -86 -58 -108 -99 -15 -27 -17 -109 -20 -871 l-3
-842 -92 -4 c-112 -5 -179 -32 -235 -92 -81 -88 -77 -39 -77 -946 0 -801 0
-805 21 -851 54 -116 140 -169 291 -177 l92 -5 3 -536 c3 -588 1 -562 65 -623
65 -62 -61 -58 1793 -58 1854 0 1728 -4 1793 58 64 61 62 35 65 623 l3 536 92
5 c151 8 237 61 291 177 21 46 21 50 21 851 0 907 4 858 -77 946 -56 60 -123
87 -235 92 l-93 4 -1 302 c-1 165 -4 312 -8 326 -8 30 -994 1160 -1033 1184
-24 15 -138 16 -1270 16 -1088 -1 -1247 -3 -1278 -16z m2400 -714 l0 -530 29
-32 29 -33 466 -3 466 -3 0 -249 0 -250 -1660 0 -1660 0 0 815 0 815 1165 0
1165 0 0 -530z m913 -1371 c92 -13 237 -58 237 -73 0 -14 -68 -258 -74 -263
-2 -2 -38 8 -79 22 -90 30 -221 45 -300 34 -103 -14 -163 -67 -161 -143 2 -83
48 -118 272 -210 267 -110 380 -223 400 -398 23 -200 -66 -371 -239 -459 -201
-101 -511 -104 -757 -7 -39 15 -51 25 -48 37 3 9 19 73 37 142 l31 127 61 -25
c106 -43 205 -64 312 -65 172 -2 250 49 250 164 0 49 -4 61 -30 88 -42 45 -86
71 -195 114 -295 118 -413 228 -441 411 -20 128 24 257 121 355 127 127 362
185 603 149z m-1317 -25 c215 -41 341 -152 390 -347 31 -120 0 -300 -70 -403
-60 -89 -168 -161 -296 -198 -77 -22 -232 -37 -312 -29 l-68 6 0 -277 0 -276
-170 0 -170 0 0 759 0 759 128 11 c70 7 152 13 182 15 94 6 311 -5 386 -20z
m-966 -129 l0 -145 -300 0 -300 0 0 -160 0 -160 285 0 285 0 0 -140 0 -140
-285 0 -285 0 0 -180 0 -180 315 0 315 0 0 -145 0 -145 -487 2 -488 3 -3 755
c-1 415 0 761 3 768 3 9 108 12 475 12 l470 0 0 -145z m2360 -2125 l0 -480
-1660 0 -1660 0 0 480 0 480 1660 0 1660 0 0 -480z"/>
<path d="M2483 2744 c-10 -4 -13 -60 -13 -229 l0 -224 36 -7 c69 -13 187 2
247 31 166 78 178 328 20 406 -41 21 -65 24 -163 26 -63 1 -121 0 -127 -3z"/>
</g>
</svg>
