<svg 
          width="16.12493324279785" 
          height="16.125019073486328" fill="none" 
          xmlns="http://www.w3.org/2000/svg">
          <path d="M 10.287890500074079 5.2921911924385885 C 10.576548412281367 4.995122614121743 10.56972916388025 4.520297975227141 10.27266055920928 4.231640803883527 C 9.97559195453831 3.942983274912066 9.50076727352014 3.949801807452527 9.21211007656861 4.24687074339722 L 5.970835981505363 7.582592277300144 L 4.25806022361128 6.005303981379021 C 3.9533637739042575 5.724709887485172 3.4788920716028873 5.744249242561255 3.198298310444309 6.048946022865303 C 2.9177043704717907 6.353642087913657 2.9372435484673467 6.828114105750622 3.2419399981743693 7.108707484388776 L 5.491827769555987 9.180620127353563 C 5.79076641040744 9.455912030780357 6.25457543748963 9.443033851991835 6.537778094027177 9.151579315625066 L 10.287890500074079 5.2921911924385885 ZM 0 1.8749998891077755 C 0 0.8394676248455561 0.8394676993180408 0 1.8750000554464124 0 L 11.625000343767757 0 C 12.660559074952221 0 13.50000039921417 0.8394757608790868 13.50000039921417 1.8749998891077755 L 13.50000039921417 11.624999312468209 C 13.50000039921417 12.660549368715841 12.660550491883122 13.499999201575983 11.625000343767757 13.499999201575983 L 1.8750000554464124 13.499999201575983 C 0.8394758353522931 13.499999201575983 0 12.660557951784181 0 11.624999312468209 L 0 1.8749998891077755 Z M 1.8750000554464124 1.4999999112862203 C 1.6678948895624972 1.4999999112862203 1.50000004435713 1.667894741596975 1.50000004435713 1.8749998891077755 L 1.50000004435713 11.624999312468209 C 1.50000004435713 11.832115188814434 1.667886664121275 11.999999290289763 1.8750000554464124 11.999999290289763 L 11.625000343767757 11.999999290289763 C 11.832124106301393 11.999999290289763 12.00000035485704 11.83212305662708 12.00000035485704 11.624999312468209 L 12.00000035485704 1.8749998891077755 C 12.00000035485704 1.6678865161564824 11.83211623848805 1.4999999112862203 11.625000343767757 1.4999999112862203 L 1.8750000554464124 1.4999999112862203 ZM 15.374933220619287 3.0007322444041233 C 15.789146413410151 3.0007322444041233 16.12493324279785 3.336518686375005 16.12493324279785 3.7507322000472336 L 16.12493324279785 14.625019162200108 C 16.12493324279785 15.453396836901609 15.453395346810373 16.125019073486328 14.624933198440722 16.125019073486328 L 3.7512818492119777 16.125019073486328 C 3.3370682987932345 16.125019073486328 3.001281827033413 15.789232273887599 3.001281827033413 15.375019117843218 C 3.001281827033413 14.960805961798837 3.3370682987932345 14.625019162200108 3.7512818492119777 14.625019162200108 L 14.624933198440722 14.625019162200108 L 14.624933198440722 3.7507322000472336 C 14.624933198440722 3.336518686375005 14.960718597316905 3.0007322444041233 15.374933220619287 3.0007322444041233 Z" fill="rgb(0,0,0)"/>
        </svg>